# xmcd CD database file
#
# Track frame offsets:
#	150
#	20318
#	34362
#	53329
#	82272
#	97898
#	122425
#	141739
#	161690
#
# Disc length: 2684 seconds
#
# Revision: 0
# Processed by: cddbd v1.5.2PL0 Copyright (c) Steve Scherf et al.
# Submitted via: CDex 1.70beta2
#
DISCID=710a7a09
DTITLE=Eish Kodesh - Relaxin'
DYEAR=2008
DGENRE=Jewish
TTITLE0=Shuva - Raz Hartman
TTITLE1=Shirat Ha-E-l - Eliad Eliyahu
TTITLE2=Malachim - Aryeh Naftali
TTITLE3=Beit Hashem Nelech - Tzipia
TTITLE4=Shoef - Madregot
TTITLE5=Ana B'Koach - Ovadia Hamama
TTITLE6=Vihi Noam - Eliad Eliyahu
TTITLE7=Hevel Havalim - Avi Ganz
TTITLE8=Zion - Sean Winters
EXTD=YEAR: 2008
EXTT0=
EXTT1=
EXTT2=
EXTT3=
EXTT4=
EXTT5=
EXTT6=
EXTT7=
EXTT8=
PLAYORDER=
